<svg xmlns="http://www.w3.org/2000/svg" width="320" height="32" viewBox="0 0 320 32" fill="none">
  <!-- Central 8-pointed Khatam star -->
  <polygon points="160.00,5.00 162.49,9.99 167.78,8.22 166.01,13.51 171.00,16.00 166.01,18.49 167.78,23.78 162.49,22.01 160.00,27.00 157.51,22.01 152.22,23.78 153.99,18.49 149.00,16.00 153.99,13.51 152.22,8.22 157.51,9.99" fill="#E3A740" fill-opacity="0.15" stroke="#E3A740" stroke-width="1.2" stroke-linejoin="round" />
  <polygon points="160.00,11.00 161.15,13.23 163.54,12.46 162.77,14.85 165.00,16.00 162.77,17.15 163.54,19.54 161.15,18.77 160.00,21.00 158.85,18.77 156.46,19.54 157.23,17.15 155.00,16.00 157.23,14.85 156.46,12.46 158.85,13.23" fill="#E3A740" fill-opacity="0.8" stroke="#C46A55" stroke-width="0.6" />
  <circle cx="160" cy="16" r="1.2" fill="#14183A" />

  <!-- Flanking horizontal rule lines -->
  <g stroke="#E3A740" stroke-opacity="0.6" stroke-width="1" stroke-linecap="round">
    <line x1="24" y1="16" x2="142" y2="16" />
    <line x1="178" y1="16" x2="296" y2="16" />
  </g>

  <!-- Secondary hairline accents -->
  <g stroke="#C46A55" stroke-opacity="0.4" stroke-width="0.75">
    <line x1="48" y1="16" x2="136" y2="16" stroke-dasharray="3 3" />
    <line x1="184" y1="16" x2="272" y2="16" stroke-dasharray="3 3" />
  </g>

  <!-- Small diamond accents on the rule -->
  <g fill="#E3A740" fill-opacity="0.7">
    <!-- Left markers -->
    <polygon points="60,16 63,13 66,16 63,19" />
    <polygon points="110,16 112.5,13.5 115,16 112.5,18.5" />
    <!-- Right markers -->
    <polygon points="210,16 207.5,13.5 205,16 207.5,18.5" />
    <polygon points="260,16 257,13 254,16 257,19" />
    <!-- End finials -->
    <circle cx="24" cy="16" r="1.5" />
    <circle cx="296" cy="16" r="1.5" />
  </g>
</svg>